# xmcd CD database file
#
# Track frame offsets:
#	150
#	21816
#	42515
#	67522
#
# Disc length: 1188 seconds
#
# Revision: 0
# Processed by: cddbd v1.5PL3 Copyright (c) Steve Scherf et al.
# Submitted via: CDex 1.51
#
DISCID=2704a204
DTITLE=玉置成実 - Prayer
DYEAR=2003
DGENRE=JPop
TTITLE0=Prayer
TTITLE1=real dreaM
TTITLE2=NEVER STOP MY HEART -君という奇蹟に-
TTITLE3=Prayer -instrumental-
EXTD=YEAR: 2003
EXTT0=
EXTT1=
EXTT2=
EXTT3=
PLAYORDER=
